<?xml version="1.0" encoding="UTF-8"?>
<!DOCTYPE svg PUBLIC "-//W3C//DTD SVG 1.1//EN" "http://www.w3.org/Graphics/SVG/1.1/DTD/svg11.dtd">
<svg xmlns="http://www.w3.org/2000/svg" xmlns:xlink="http://www.w3.org/1999/xlink" version="1.1" width="96px" height="91px" viewBox="-0.5 -0.5 96 91"><defs/><g><path d="M 0.41 61.53 C 1.42 58.49 3.96 55.95 7.4 54.54 C 10.83 53.13 14.84 52.99 18.41 54.15 C 23.62 56.23 27.65 59.86 29.67 64.3 C 38.96 42.67 53.08 22.64 71.32 5.25 C 76.49 1.4 83.72 0 90.45 1.56 C 92.17 1.78 93.63 2.71 94.32 4.02 C 95 5.34 94.82 6.84 93.83 8.02 C 69.04 30.96 50.61 58.03 39.8 87.37 C 33.43 90 25.91 90 19.54 87.37 C 14.73 78.61 8.27 70.51 0.41 63.38 C 0 62.81 0 62.11 0.41 61.53 Z" fill="#60a917" stroke="#2d7600" stroke-miterlimit="10" pointer-events="all"/></g></svg>